<!DOCTYPE svg PUBLIC "-//W3C//DTD SVG 20010904//EN" "http://www.w3.org/TR/2001/REC-SVG-20010904/DTD/svg10.dtd">
<svg version="1.0" xmlns="http://www.w3.org/2000/svg" width="199px" height="197px" viewBox="0 0 1990 1970" preserveAspectRatio="xMidYMid meet">
<g id="layer1" fill="#FFFFFF" stroke="none">
 <path d="M1118 1964 c-3 -2 -53 -5 -111 -5 -59 0 -109 -4 -112 -10 -4 -5 2 -10 12 -11 64 -5 79 -4 91 4 9 8 12 5 12 -11 0 -11 5 -21 10 -21 6 0 10 7 10 16 0 13 8 15 40 12 22 -2 40 0 40 5 0 5 7 7 15 3 8 -3 15 -1 15 4 0 11 -15 21 -22 14z"/>
 <path d="M755 1930 c-4 -6 -14 -9 -22 -6 -8 3 -11 2 -8 -3 3 -5 0 -11 -7 -14 -7 -2 -2 -2 11 0 20 3 23 1 18 -16 -3 -12 -2 -21 3 -21 8 0 23 61 16 67 -2 2 -7 -1 -11 -7z"/>
 <path d="M1247 1923 c-4 -3 -2 -12 4 -20 9 -10 7 -13 -10 -13 -11 0 -21 -4 -21 -10 0 -5 9 -10 20 -10 23 0 41 31 22 38 -7 2 -10 8 -6 13 6 10 0 12 -9 2z"/>
 <path d="M1307 1906 c-4 -11 -1 -13 10 -9 12 5 15 2 10 -10 -4 -11 -2 -14 9 -10 18 7 18 11 0 29 -18 18 -22 18 -29 0z"/>
 <path d="M860 1900 c-8 -5 -12 -11 -9 -14 2 -3 11 -1 19 4 8 5 12 11 9 14 -2 3 -11 1 -19 -4z"/>
 <path d="M1120 1898 c0 -4 14 -8 30 -8 17 0 30 5 30 10 0 6 -13 9 -30 8 -16 -1 -30 -6 -30 -10z"/>
 <path d="M572 1879 c-13 -5 -20 -14 -17 -19 5 -7 11 -8 19 -1 6 5 24 12 40 15 16 3 31 8 34 11 9 9 -51 4 -76 -6z"/>
 <path d="M695 1869 c-4 -6 -5 -12 -2 -15 2 -3 7 2 10 11 7 17 1 20 -8 4z"/>
 <path d="M1290 1870 c-8 -5 -12 -12 -9 -15 4 -3 12 1 19 10 14 17 11 19 -10 5z"/>
 <path d="M1437 1873 c-13 -13 -7 -32 8 -27 8 4 15 12 15 20 0 15 -12 19 -23 7z"/>
 <path d="M637 1853 c-4 -3 -7 -11 -7 -17 0 -6 5 -5 12 2 6 6 9 14 7 17 -3 3 -9 2 -12 -2z"/>
 <path d="M1375 1831 c-3 -5 -1 -12 5 -16 5 -3 10 1 10 9 0 18 -6 21 -15 7z"/>
 <path d="M470 1820 c0 -5 5 -10 10 -10 6 0 10 5 10 10 0 6 -4 10 -10 10 -5 0 -10 -4 -10 -10z"/>
 <path d="M1410 1823 c0 -6 -3 -20 -6 -30 -4 -14 -4 -15 4 -4 5 7 15 10 21 6 14 -8 61 2 61 13 0 4 -10 9 -22 9 -18 2 -20 0 -8 -7 12 -8 12 -10 -4 -10 -10 0 -25 8 -32 18 -7 9 -14 12 -14 5z"/>
 <path d="M1530 1795 c0 -4 7 -13 15 -22 13 -12 18 -13 31 -3 8 7 12 15 9 18 -8 9 -55 14 -55 7z"/>
 <path d="M918 1783 c7 -3 16 -2 19 1 4 3 -2 6 -13 5 -11 0 -14 -3 -6 -6z"/>
 <path d="M1193 1773 c0 -9 4 -10 14 -2 7 6 13 12 13 14 0 1 -6 2 -13 2 -8 0 -14 -6 -14 -14z"/>
 <path d="M1459 1750 c13 -11 30 -20 39 -20 19 0 15 3 -28 24 l-35 17 24 -21z"/>
 <path d="M650 1750 c-9 -6 -10 -10 -3 -10 6 0 15 5 18 10 8 12 4 12 -15 0z"/>
 <path d="M1508 1753 c7 -3 16 -2 19 1 4 3 -2 6 -13 5 -11 0 -14 -3 -6 -6z"/>
 <path d="M1604 1739 c-19 -22 -19 -22 4 -8 12 8 22 17 22 21 0 12 -6 9 -26 -13z"/>
 <path d="M843 1743 c-20 -8 -15 -23 7 -23 11 0 20 7 20 15 0 15 -6 17 -27 8z"/>
 <path d="M890 1730 c0 -5 18 -10 41 -10 24 0 38 4 34 10 -3 6 -22 10 -41 10 -19 0 -34 -4 -34 -10z"/>
 <path d="M990 1730 c0 -5 5 -10 10 -10 6 0 10 5 10 10 0 6 -4 10 -10 10 -5 0 -10 -4 -10 -10z"/>
 <path d="M1030 1730 c0 -5 5 -10 11 -10 5 0 7 5 4 10 -3 6 -8 10 -11 10 -2 0 -4 -4 -4 -10z"/>
 <path d="M1150 1730 c0 -5 5 -10 10 -10 6 0 10 5 10 10 0 6 -4 10 -10 10 -5 0 -10 -4 -10 -10z"/>
 <path d="M1370 1726 c0 -2 7 -7 16 -10 8 -3 12 -2 9 4 -6 10 -25 14 -25 6z"/>
 <path d="M535 1711 c-3 -5 0 -13 6 -17 8 -5 9 -3 4 6 -6 10 -4 12 9 7 10 -4 15 -3 11 3 -8 13 -22 13 -30 1z"/>
 <path d="M1415 1710 c-3 -6 1 -7 9 -4 18 7 21 14 7 14 -6 0 -13 -4 -16 -10z"/>
 <path d="M710 1690 c0 -5 5 -10 10 -10 6 0 10 5 10 10 0 6 -4 10 -10 10 -5 0 -10 -4 -10 -10z"/>
 <path d="M750 1690 c0 -5 5 -10 10 -10 6 0 10 5 10 10 0 6 -4 10 -10 10 -5 0 -10 -4 -10 -10z"/>
 <path d="M1606 1683 c-6 -14 -5 -15 5 -6 7 7 10 15 7 18 -3 3 -9 -2 -12 -12z"/>
 <path d="M1630 1690 c0 -5 5 -10 11 -10 5 0 7 5 4 10 -3 6 -8 10 -11 10 -2 0 -4 -4 -4 -10z"/>
 <path d="M620 1669 c0 -5 5 -7 10 -4 6 3 10 8 10 11 0 2 -4 4 -10 4 -5 0 -10 -5 -10 -11z"/>
 <path d="M1560 1676 c0 -2 7 -7 16 -10 8 -3 12 -2 9 4 -6 10 -25 14 -25 6z"/>
 <path d="M1670 1650 c0 -5 5 -10 10 -10 6 0 10 5 10 10 0 6 -4 10 -10 10 -5 0 -10 -4 -10 -10z"/>
 <path d="M449 1623 c-13 -16 -12 -17 4 -4 9 7 17 15 17 17 0 8 -8 3 -21 -13z"/>
 <path d="M665 1620 c-3 -5 -1 -10 4 -10 6 0 11 5 11 10 0 6 -2 10 -4 10 -3 0 -8 -4 -11 -10z"/>
 <path d="M810 1601 c0 -11 5 -23 10 -26 6 -4 10 5 10 19 0 14 -4 26 -10 26 -5 0 -10 -9 -10 -19z"/>
 <path d="M255 1600 c3 -5 8 -10 11 -10 2 0 4 5 4 10 0 6 -5 10 -11 10 -5 0 -7 -4 -4 -10z"/>
 <path d="M645 1590 c-3 -5 -1 -10 4 -10 6 0 11 5 11 10 0 6 -2 10 -4 10 -3 0 -8 -4 -11 -10z"/>
 <path d="M1730 1574 c0 -8 5 -12 10 -9 6 3 10 10 10 16 0 5 -4 9 -10 9 -5 0 -10 -7 -10 -16z"/>
 <path d="M755 1560 c-3 -5 1 -10 10 -10 9 0 13 5 10 10 -3 6 -8 10 -10 10 -2 0 -7 -4 -10 -10z"/>
 <path d="M502 1530 c-14 -24 -16 -70 -2 -70 6 0 10 16 10 35 0 22 4 33 13 31 6 -1 9 -1 4 1 -4 3 -5 9 -1 14 3 5 1 9 -3 9 -5 0 -14 -9 -21 -20z"/>
 <path d="M1766 1543 c5 -5 12 -12 16 -18 4 -6 8 -2 8 8 0 9 -7 17 -17 17 -9 0 -12 -3 -7 -7z"/>
 <path d="M790 1530 c-16 -11 -15 -11 18 -15 18 -2 20 0 11 11 -13 16 -10 16 -29 4z"/>
 <path d="M1470 1530 c0 -5 5 -10 11 -10 5 0 7 5 4 10 -3 6 -8 10 -11 10 -2 0 -4 -4 -4 -10z"/>
 <path d="M345 1519 c-4 -6 -5 -12 -2 -15 2 -3 7 2 10 11 7 17 1 20 -8 4z"/>
 <path d="M405 1500 c-32 -33 -23 -40 13 -10 13 11 22 24 20 30 -2 6 -16 -3 -33 -20z"/>
 <path d="M875 1511 c-3 -5 -1 -12 5 -16 5 -3 10 1 10 9 0 18 -6 21 -15 7z"/>
 <path d="M1710 1510 c-13 -8 -12 -10 3 -10 9 0 17 5 17 10 0 12 -1 12 -20 0z"/>
 <path d="M520 1478 c0 -35 12 -30 17 7 2 14 -1 25 -7 25 -5 0 -10 -14 -10 -32z"/>
 <path d="M610 1489 c0 -5 5 -7 10 -4 6 3 10 8 10 11 0 2 -4 4 -10 4 -5 0 -10 -5 -10 -11z"/>
 <path d="M871 1474 c13 -17 26 -30 28 -27 3 2 -8 16 -24 31 l-28 27 24 -31z"/>
 <path d="M1510 1490 c0 -5 5 -10 10 -10 6 0 10 5 10 10 0 6 -4 10 -10 10 -5 0 -10 -4 -10 -10z"/>
 <path d="M175 1470 c-3 -6 1 -7 9 -4 18 7 21 14 7 14 -6 0 -13 -4 -16 -10z"/>
 <path d="M914 1466 c-3 -7 4 -28 15 -46 10 -18 17 -38 15 -45 -3 -7 -1 -16 4 -19 6 -3 12 1 16 9 3 8 1 17 -4 20 -6 4 -10 11 -10 16 0 6 4 8 9 5 5 -3 12 1 15 10 8 21 7 32 -2 17 -5 -8 -14 -5 -32 9 l-25 21 25 -6 c27 -7 59 7 47 20 -5 4 -12 1 -17 -7 -7 -10 -10 -11 -10 -2 0 17 -39 15 -46 -2z"/>
 <path d="M791 1443 c42 -35 59 -38 59 -7 0 27 -3 28 -30 14 -13 -7 -21 -6 -30 5 -7 8 -17 15 -22 15 -5 0 5 -12 23 -27z"/>
 <path d="M360 1440 c0 -19 3 -21 12 -12 9 9 9 15 0 24 -9 9 -12 7 -12 -12z"/>
 <path d="M1550 1450 c0 -5 5 -10 11 -10 5 0 7 5 4 10 -3 6 -8 10 -11 10 -2 0 -4 -4 -4 -10z"/>
 <path d="M265 1440 c-2 -3 5 -6 15 -7 11 -1 22 2 25 7 3 5 -4 8 -16 7 -11 -1 -22 -4 -24 -7z"/>
 <path d="M165 1400 c-3 -5 -1 -10 4 -10 6 0 11 5 11 10 0 6 -2 10 -4 10 -3 0 -8 -4 -11 -10z"/>
 <path d="M470 1370 c0 -5 5 -10 10 -10 6 0 10 5 10 10 0 6 -4 10 -10 10 -5 0 -10 -4 -10 -10z"/>
 <path d="M238 1338 c2 -15 5 -28 7 -28 2 0 5 13 7 28 2 17 -1 29 -7 29 -6 0 -9 -12 -7 -29z"/>
 <path d="M560 1361 c0 -6 4 -13 10 -16 6 -3 7 1 4 9 -7 18 -14 21 -14 7z"/>
 <path d="M664 1338 c1 -13 7 -22 12 -21 5 1 16 -4 24 -10 8 -7 4 3 -9 21 -26 38 -32 40 -27 10z"/>
 <path d="M139 1322 c16 -30 33 -38 22 -11 -4 13 -14 25 -20 27 -10 3 -10 0 -2 -16z"/>
 <path d="M350 1330 c0 -5 5 -10 10 -10 6 0 10 5 10 10 0 6 -4 10 -10 10 -5 0 -10 -4 -10 -10z"/>
 <path d="M1707 1326 c-15 -12 -16 -14 -2 -20 9 -3 15 0 15 10 0 11 6 14 16 10 8 -3 12 -2 9 4 -8 13 -16 12 -38 -4z"/>
 <path d="M1090 1301 c0 -6 5 -13 10 -16 6 -3 10 1 10 9 0 9 -4 16 -10 16 -5 0 -10 -4 -10 -9z"/>
 <path d="M782 1280 c-7 -11 -10 -20 -6 -20 7 0 34 27 34 34 0 13 -16 5 -28 -14z"/>
 <path d="M1832 1280 c0 -14 2 -19 5 -12 2 6 2 18 0 25 -3 6 -5 1 -5 -13z"/>
 <path d="M215 1280 c-3 -5 -1 -10 4 -10 6 0 11 5 11 10 0 6 -2 10 -4 10 -3 0 -8 -4 -11 -10z"/>
 <path d="M1680 1275 c-10 -12 -10 -15 3 -15 8 0 17 7 21 15 3 8 2 15 -3 15 -5 0 -14 -7 -21 -15z"/>
 <path d="M1754 1265 c0 -13 6 -27 13 -29 11 -5 11 -1 2 17 -7 12 -11 24 -10 25 2 2 1 5 -1 8 -2 2 -4 -8 -4 -21z"/>
 <path d="M910 1255 c0 -8 5 -15 10 -15 6 0 10 7 10 15 0 8 -4 15 -10 15 -5 0 -10 -7 -10 -15z"/>
 <path d="M825 1240 c-3 -5 1 -10 10 -10 9 0 13 5 10 10 -3 6 -8 10 -10 10 -2 0 -7 -4 -10 -10z"/>
 <path d="M1066 1242 c-3 -5 1 -9 9 -9 8 0 12 4 9 9 -3 4 -7 8 -9 8 -2 0 -6 -4 -9 -8z"/>
 <path d="M810 1216 c0 -2 8 -10 18 -17 15 -13 16 -12 3 4 -13 16 -21 21 -21 13z"/>
 <path d="M950 1210 c0 -5 5 -10 11 -10 5 0 7 5 4 10 -3 6 -8 10 -11 10 -2 0 -4 -4 -4 -10z"/>
 <path d="M1750 1199 c0 -15 5 -19 15 -15 8 3 15 0 15 -6 0 -6 2 -9 5 -7 2 3 2 15 -2 27 -7 28 -33 29 -33 1z"/>
 <path d="M1095 1189 c-3 -4 2 -6 10 -5 21 3 28 13 10 13 -9 0 -18 -4 -20 -8z"/>
 <path d="M880 1161 c0 -5 7 -12 16 -15 14 -5 15 -4 4 9 -14 17 -20 19 -20 6z"/>
 <path d="M690 1150 c0 -6 7 -10 15 -10 8 0 15 2 15 4 0 2 -7 6 -15 10 -8 3 -15 1 -15 -4z"/>
 <path d="M1930 1134 c0 -8 5 -12 10 -9 6 3 10 10 10 16 0 5 -4 9 -10 9 -5 0 -10 -7 -10 -16z"/>
 <path d="M80 1079 c0 -32 -5 -59 -11 -61 -15 -5 -25 -88 -10 -88 6 0 11 7 11 16 0 8 5 12 10 9 6 -3 10 1 10 9 0 9 -4 16 -10 16 -5 0 -10 5 -10 11 0 5 5 7 10 4 6 -4 10 15 11 49 2 65 2 67 11 82 4 6 1 11 -7 11 -11 0 -15 -14 -15 -58z"/>
 <path d="M940 1116 c0 -2 7 -7 16 -10 8 -3 12 -2 9 4 -6 10 -25 14 -25 6z"/>
 <path d="M1054 1096 c1 -8 5 -18 8 -22 4 -3 5 1 4 10 -1 8 -5 18 -8 22 -4 3 -5 -1 -4 -10z"/>
 <path d="M1930 1089 c0 -5 5 -7 10 -4 6 3 10 8 10 11 0 2 -4 4 -10 4 -5 0 -10 -5 -10 -11z"/>
 <path d="M1030 1066 c0 -2 7 -7 16 -10 8 -3 12 -2 9 4 -6 10 -25 14 -25 6z"/>
 <path d="M1882 1050 c0 -14 2 -19 5 -12 2 6 2 18 0 25 -3 6 -5 1 -5 -13z"/>
 <path d="M1775 1039 c-4 -12 -2 -26 4 -32 8 -8 11 -2 11 21 0 37 -6 41 -15 11z"/>
 <path d="M936 1041 c-3 -5 1 -11 9 -15 8 -3 15 -1 15 4 0 13 -18 22 -24 11z"/>
 <path d="M1245 1032 c-6 -4 -11 -18 -12 -32 -2 -24 -2 -24 8 3 l11 28 20 -20 c10 -12 17 -25 13 -30 -3 -5 8 -7 24 -5 25 4 29 2 27 -13 -2 -10 0 -27 5 -38 8 -18 8 -17 6 5 -1 19 3 25 20 26 18 1 21 -2 13 -17 -13 -23 -13 -32 0 -24 6 3 11 1 11 -4 3 -21 4 -26 12 -38 12 -19 30 -16 45 7 10 17 10 20 -4 20 -8 0 -13 -4 -9 -9 8 -15 -15 -25 -28 -12 -8 8 -8 11 1 11 17 0 15 21 -4 35 -14 10 -12 12 16 11 18 -1 35 5 37 12 3 6 -2 12 -10 12 -9 0 -18 6 -21 13 -5 9 -7 9 -12 -1 -4 -9 -9 -10 -19 -2 -7 6 -17 10 -21 8 -15 -4 -58 13 -79 32 -29 25 -40 30 -50 22z"/>
 <path d="M1290 1034 c0 -14 32 -35 45 -30 17 6 20 22 5 31 -6 3 -7 -1 -4 -9 3 -9 2 -16 -4 -16 -5 0 -12 7 -16 15 -5 14 -26 22 -26 9z"/>
 <path d="M1370 1030 c0 -5 5 -10 10 -10 6 0 10 5 10 10 0 6 -4 10 -10 10 -5 0 -10 -4 -10 -10z"/>
 <path d="M1790 979 c-7 -11 -10 -23 -7 -25 2 -2 9 7 15 21 14 30 7 33 -8 4z"/>
 <path d="M1970 950 c0 -5 5 -10 10 -10 6 0 10 5 10 10 0 6 -4 10 -10 10 -5 0 -10 -4 -10 -10z"/>
 <path d="M1240 946 c0 -2 11 -11 25 -20 14 -9 25 -13 25 -8 0 5 -11 14 -25 20 -14 6 -25 10 -25 8z"/>
 <path d="M1781 924 c0 -11 3 -14 6 -6 3 7 2 16 -1 19 -3 4 -6 -2 -5 -13z"/>
 <path d="M1306 908 c3 -4 9 -8 15 -8 5 0 9 4 9 8 0 5 -7 9 -15 9 -8 0 -12 -4 -9 -9z"/>
 <path d="M1970 881 c0 -23 5 -41 10 -41 6 0 10 15 10 34 0 19 -4 38 -10 41 -6 4 -10 -10 -10 -34z"/>
 <path d="M40 889 c0 -5 5 -7 10 -4 6 3 10 8 10 11 0 2 -4 4 -10 4 -5 0 -10 -5 -10 -11z"/>
 <path d="M96 868 c-3 -13 0 -29 7 -36 11 -10 12 -6 9 23 -5 41 -8 43 -16 13z"/>
 <path d="M1145 850 c3 -5 8 -10 11 -10 2 0 4 5 4 10 0 6 -5 10 -11 10 -5 0 -7 -4 -4 -10z"/>
 <path d="M30 805 c0 -25 4 -45 9 -45 14 0 21 43 10 57 -6 6 -8 17 -4 23 3 5 1 10 -4 10 -6 0 -11 -20 -11 -45z"/>
 <path d="M1160 822 c0 -6 -7 -9 -15 -6 -11 5 -15 -1 -15 -20 0 -21 5 -26 26 -26 19 0 25 -4 20 -15 -3 -8 -1 -15 4 -15 11 0 13 21 4 45 -5 13 -9 14 -15 4 -4 -8 -11 -10 -15 -6 -4 3 -1 13 6 22 7 9 10 18 6 22 -3 3 -6 1 -6 -5z"/>
 <path d="M1070 810 c0 -5 5 -10 11 -10 5 0 7 5 4 10 -3 6 -8 10 -11 10 -2 0 -4 -4 -4 -10z"/>
 <path d="M94 788 c3 -20 16 -38 27 -38 17 0 5 45 -13 48 -9 2 -16 -3 -14 -10z m23 -20 c-3 -8 -6 -5 -6 6 -1 11 2 17 5 13 3 -3 4 -12 1 -19z"/>
 <path d="M1272 770 c0 -14 2 -19 5 -12 2 6 2 18 0 25 -3 6 -5 1 -5 -13z"/>
 <path d="M201 764 c0 -11 3 -14 6 -6 3 7 2 16 -1 19 -3 4 -6 -2 -5 -13z"/>
 <path d="M1410 770 c-9 -6 -10 -10 -3 -10 6 0 15 5 18 10 8 12 4 12 -15 0z"/>
 <path d="M113 725 c-7 -21 4 -32 19 -17 9 9 9 12 -2 12 -13 0 -13 2 0 10 10 7 11 10 2 10 -7 0 -15 -7 -19 -15z"/>
 <path d="M1120 726 c0 -2 7 -7 16 -10 8 -3 12 -2 9 4 -6 10 -25 14 -25 6z"/>
 <path d="M1192 700 c0 -19 2 -27 5 -17 2 9 2 25 0 35 -3 9 -5 1 -5 -18z"/>
 <path d="M1830 719 c0 -5 5 -7 10 -4 6 3 10 8 10 11 0 2 -4 4 -10 4 -5 0 -10 -5 -10 -11z"/>
 <path d="M150 680 c0 -5 5 -10 11 -10 5 0 7 5 4 10 -3 6 -8 10 -11 10 -2 0 -4 -4 -4 -10z"/>
 <path d="M1630 670 c0 -5 5 -10 10 -10 6 0 10 5 10 10 0 6 -4 10 -10 10 -5 0 -10 -4 -10 -10z"/>
 <path d="M1110 655 c0 -8 4 -15 9 -15 5 0 11 7 15 15 3 9 0 15 -9 15 -8 0 -15 -7 -15 -15z"/>
 <path d="M70 650 c0 -5 5 -10 11 -10 5 0 7 5 4 10 -3 6 -8 10 -11 10 -2 0 -4 -4 -4 -10z"/>
 <path d="M156 652 c-3 -5 1 -9 9 -9 8 0 12 4 9 9 -3 4 -7 8 -9 8 -2 0 -6 -4 -9 -8z"/>
 <path d="M1190 650 c0 -5 5 -10 10 -10 6 0 10 5 10 10 0 6 -4 10 -10 10 -5 0 -10 -4 -10 -10z"/>
 <path d="M1181 621 c-16 -10 -6 -52 12 -48 7 1 11 -3 10 -9 -1 -6 5 -11 12 -11 10 0 12 4 5 12 -5 7 -6 16 -2 20 4 5 2 5 -4 2 -7 -4 -14 2 -17 13 -3 10 0 21 7 24 6 2 7 5 1 5 -5 0 -16 -3 -24 -8z"/>
 <path d="M281 604 c0 -11 3 -14 6 -6 3 7 2 16 -1 19 -3 4 -6 -2 -5 -13z"/>
 <path d="M1110 610 c0 -5 5 -10 10 -10 6 0 10 5 10 10 0 6 -4 10 -10 10 -5 0 -10 -4 -10 -10z"/>
 <path d="M1605 551 c-6 -11 9 -23 19 -14 9 9 7 23 -3 23 -6 0 -12 -4 -16 -9z"/>
 <path d="M1665 550 c3 -5 8 -10 11 -10 2 0 4 5 4 10 0 6 -5 10 -11 10 -5 0 -7 -4 -4 -10z"/>
 <path d="M432 529 c2 -6 7 -10 11 -10 4 1 14 1 22 1 8 0 15 5 15 10 0 6 -12 10 -26 10 -14 0 -24 -5 -22 -11z"/>
 <path d="M1575 510 c-3 -5 -1 -10 4 -10 6 0 11 5 11 10 0 6 -2 10 -4 10 -3 0 -8 -4 -11 -10z"/>
 <path d="M402 496 c10 -10 15 -11 21 -2 5 6 7 -6 5 -28 -4 -33 -3 -36 9 -20 10 13 13 14 13 3 0 -12 2 -12 10 1 11 18 -25 60 -52 60 -16 0 -17 -2 -6 -14z"/>
 <path d="M1183 493 c0 -7 4 -13 7 -13 4 0 12 6 18 13 8 10 6 13 -7 13 -10 0 -18 -6 -18 -13z"/>
 <path d="M472 489 c2 -6 8 -10 13 -10 5 0 11 4 13 10 2 6 -4 11 -13 11 -9 0 -15 -5 -13 -11z"/>
 <path d="M1703 485 c0 -8 4 -12 9 -9 5 3 6 10 3 15 -9 13 -12 11 -12 -6z"/>
 <path d="M1605 470 c3 -5 8 -10 11 -10 2 0 4 5 4 10 0 6 -5 10 -11 10 -5 0 -7 -4 -4 -10z"/>
 <path d="M1183 456 c3 -7 0 -20 -6 -27 -10 -11 -9 -11 5 0 15 11 15 41 1 41 -3 0 -3 -6 0 -14z"/>
 <path d="M458 435 l-18 -23 35 3 c20 2 35 -2 35 -8 0 -5 9 -2 20 8 29 26 25 38 -10 32 -17 -4 -30 -2 -30 3 0 17 -14 10 -32 -15z"/>
 <path d="M1633 390 c-18 -21 -33 -40 -33 -44 0 -3 16 12 36 34 20 22 35 42 33 44 -2 1 -19 -14 -36 -34z"/>
 <path d="M566 405 c-3 -9 0 -15 9 -15 8 0 15 7 15 15 0 8 -4 15 -9 15 -5 0 -11 -7 -15 -15z"/>
 <path d="M1810 410 c0 -5 5 -10 10 -10 6 0 10 5 10 10 0 6 -4 10 -10 10 -5 0 -10 -4 -10 -10z"/>
 <path d="M610 390 c0 -5 5 -10 10 -10 6 0 10 5 10 10 0 6 -4 10 -10 10 -5 0 -10 -4 -10 -10z"/>
 <path d="M1153 380 c-1 -14 4 -20 19 -20 20 0 21 1 3 20 -10 11 -19 20 -19 20 -1 0 -2 -9 -3 -20z"/>
 <path d="M1700 390 c0 -6 7 -10 15 -10 8 0 15 -4 15 -10 0 -5 5 -10 10 -10 19 0 10 17 -15 28 -15 7 -25 8 -25 2z"/>
 <path d="M558 338 c-15 -18 -19 -19 -35 -7 -17 13 -17 12 0 -8 l18 -21 25 25 c13 13 24 26 24 28 0 12 -16 3 -32 -17z"/>
 <path d="M1481 346 c-9 -11 -9 -16 1 -22 7 -4 10 -4 6 1 -4 4 -3 14 3 22 6 7 9 13 6 13 -2 0 -10 -6 -16 -14z"/>
 <path d="M1685 334 c9 -9 19 -13 23 -10 3 4 0 11 -8 16 -24 15 -33 11 -15 -6z"/>
 <path d="M650 330 c0 -5 5 -10 11 -10 5 0 7 5 4 10 -3 6 -8 10 -11 10 -2 0 -4 -4 -4 -10z"/>
 <path d="M1576 323 c-6 -14 -5 -15 5 -6 7 7 10 15 7 18 -3 3 -9 -2 -12 -12z"/>
 <path d="M830 290 c0 -5 5 -10 10 -10 6 0 10 5 10 10 0 6 -4 10 -10 10 -5 0 -10 -4 -10 -10z"/>
 <path d="M1690 290 c0 -5 5 -10 10 -10 6 0 10 5 10 10 0 6 -4 10 -10 10 -5 0 -10 -4 -10 -10z"/>
 <path d="M776 256 c-9 -38 1 -53 34 -48 17 2 30 9 30 14 0 6 -12 8 -29 5 -26 -5 -28 -4 -23 19 3 16 9 23 18 20 8 -3 14 -1 14 4 0 22 -38 9 -44 -14z"/>
 <path d="M1650 250 c0 -5 5 -10 10 -10 6 0 10 5 10 10 0 6 -4 10 -10 10 -5 0 -10 -4 -10 -10z"/>
 <path d="M510 246 c0 -2 7 -7 16 -10 8 -3 12 -2 9 4 -6 10 -25 14 -25 6z"/>
 <path d="M1446 235 c-3 -8 -1 -15 4 -15 6 0 10 7 10 15 0 8 -2 15 -4 15 -2 0 -6 -7 -10 -15z"/>
 <path d="M991 222 c-4 -7 -23 -18 -42 -22 -32 -8 -31 -9 16 -9 28 0 65 -2 82 -4 18 -3 30 -1 27 4 -3 5 -10 7 -15 4 -5 -4 -12 1 -15 10 -6 14 -9 14 -16 3 -7 -9 -9 -7 -5 8 5 24 -19 29 -32 6z"/>
 <path d="M1505 210 c-3 -5 1 -10 10 -10 9 0 13 5 10 10 -3 6 -8 10 -10 10 -2 0 -7 -4 -10 -10z"/>
 <path d="M610 196 c0 -2 7 -7 16 -10 8 -3 12 -2 9 4 -6 10 -25 14 -25 6z"/>
 <path d="M1405 180 c-4 -6 -10 -8 -15 -5 -5 3 -11 2 -14 -3 -7 -12 28 -11 36 1 4 7 13 6 25 -4 16 -13 17 -13 4 4 -15 19 -27 22 -36 7z"/>
 <path d="M710 93 c0 -7 4 -13 9 -13 5 0 11 6 14 13 3 8 -1 14 -9 14 -8 0 -14 -6 -14 -14z"/>
 <path d="M958 103 c6 -2 18 -2 25 0 6 3 1 5 -13 5 -14 0 -19 -2 -12 -5z"/>
 <path d="M996 95 c-2 -6 9 -11 25 -11 15 -1 30 5 33 12 4 11 -2 14 -24 12 -16 -1 -31 -7 -34 -13z"/>
 <path d="M1355 90 c-3 -5 1 -10 9 -10 9 0 16 5 16 10 0 6 -4 10 -9 10 -6 0 -13 -4 -16 -10z"/>
 <path d="M979 57 c5 -5 17 -5 28 2 16 9 15 10 -9 9 -16 -2 -24 -6 -19 -11z"/>
 <path d="M1190 50 c0 -5 5 -10 10 -10 6 0 10 5 10 10 0 6 -4 10 -10 10 -5 0 -10 -4 -10 -10z"/>
 <path d="M1235 50 c-3 -5 1 -10 9 -10 9 0 16 5 16 10 0 6 -4 10 -9 10 -6 0 -13 -4 -16 -10z"/>
 <path d="M1290 50 c0 -5 5 -10 10 -10 6 0 10 5 10 10 0 6 -4 10 -10 10 -5 0 -10 -4 -10 -10z"/>
 <path d="M870 10 c0 -5 5 -10 10 -10 6 0 10 5 10 10 0 6 -4 10 -10 10 -5 0 -10 -4 -10 -10z"/>
 <path d="M910 10 c0 -5 5 -10 10 -10 6 0 10 5 10 10 0 6 -4 10 -10 10 -5 0 -10 -4 -10 -10z"/>
 <path d="M950 10 c0 -5 5 -10 10 -10 6 0 10 5 10 10 0 6 -4 10 -10 10 -5 0 -10 -4 -10 -10z"/>
 <path d="M990 10 c0 -5 5 -10 10 -10 6 0 10 5 10 10 0 6 -4 10 -10 10 -5 0 -10 -4 -10 -10z"/>
 <path d="M1030 10 c0 -5 5 -10 10 -10 6 0 10 5 10 10 0 6 -4 10 -10 10 -5 0 -10 -4 -10 -10z"/>
 </g>
<g id="layer2" fill="#EEEEEE" stroke="none">
 <path d="M705 1920 c-3 -5 1 -10 10 -10 9 0 13 5 10 10 -3 6 -8 10 -10 10 -2 0 -7 -4 -10 -10z"/>
 <path d="M1255 1920 c-3 -5 -1 -10 4 -10 6 0 11 5 11 10 0 6 -2 10 -4 10 -3 0 -8 -4 -11 -10z"/>
 <path d="M938 1893 c12 -2 30 -2 40 0 9 3 -1 5 -23 4 -22 0 -30 -2 -17 -4z"/>
 <path d="M825 1860 c-196 -41 -343 -125 -482 -274 -34 -36 -63 -62 -66 -58 -2 4 -2 1 -1 -6 2 -7 -13 -38 -32 -68 -101 -157 -151 -397 -123 -579 19 -120 79 -273 146 -371 59 -87 188 -209 270 -254 23 -13 39 -28 36 -33 -3 -6 -1 -7 5 -3 6 4 24 0 39 -8 98 -50 301 -91 414 -82 151 11 320 65 424 135 50 34 60 38 49 19 -4 -8 -3 -10 2 -5 5 5 9 12 9 15 0 4 35 40 77 80 42 41 91 96 108 123 18 27 37 46 43 42 5 -3 7 -1 4 4 -9 14 37 95 48 86 4 -5 5 -3 2 3 -4 7 0 31 9 55 45 126 68 262 61 363 -11 140 -69 323 -137 423 -32 46 -36 58 -20 48 6 -3 7 1 3 10 -4 12 -8 13 -13 5 -10 -17 -24 6 -14 23 4 6 4 9 -1 5 -9 -9 -181 150 -177 164 1 5 -2 7 -7 4 -5 -4 -27 3 -48 15 -127 74 -208 103 -336 124 -118 19 -181 18 -292 -5z m287 -31 c79 -16 127 -29 187 -51 40 -15 50 -23 40 -30 -11 -8 -10 -9 4 -4 19 6 77 -18 111 -46 12 -9 48 -39 82 -67 104 -84 209 -241 249 -371 17 -56 44 -215 45 -258 0 -14 -5 -22 -12 -20 -8 3 -12 21 -10 49 1 24 -2 62 -7 84 -8 37 -9 34 -10 -31 -1 -85 7 -136 22 -127 33 21 -35 -279 -78 -340 -8 -12 -15 -29 -15 -39 0 -10 -4 -18 -8 -18 -5 0 -30 -30 -57 -66 -89 -122 -242 -233 -392 -285 -72 -25 -202 -49 -268 -49 -77 0 -212 25 -295 55 -85 31 -196 96 -193 113 2 6 -3 9 -10 6 -7 -2 -24 7 -37 21 -13 14 -20 25 -15 25 5 0 -11 20 -35 45 -24 24 -47 42 -51 40 -10 -7 -72 72 -65 83 2 4 0 14 -6 22 -8 12 -9 12 -4 -2 14 -45 -9 -10 -45 67 -79 167 -106 351 -74 503 26 128 78 268 95 257 5 -3 12 0 16 6 4 8 3 9 -4 5 -15 -9 -10 32 4 42 5 4 24 26 43 50 18 23 36 40 41 37 4 -2 16 5 26 18 l19 22 -22 -19 c-13 -11 -23 -15 -23 -9 0 17 99 105 110 98 6 -4 9 -2 8 3 -5 14 59 63 116 90 189 88 372 121 518 91z m-677 -1448 c-7 -6 -54 39 -67 64 -6 11 8 2 31 -19 22 -22 38 -42 36 -45z"/>
 <path d="M870 1730 c0 -5 5 -10 10 -10 6 0 10 5 10 10 0 6 -4 10 -10 10 -5 0 -10 -4 -10 -10z"/>
 <path d="M668 1593 c7 -3 16 -2 19 1 4 3 -2 6 -13 5 -11 0 -14 -3 -6 -6z"/>
 <path d="M623 1569 c-47 -14 -77 -60 -71 -113 8 -68 34 -108 126 -197 131 -126 145 -137 315 -243 138 -86 157 -101 152 -120 -5 -15 -4 -17 3 -7 19 27 82 -209 82 -306 0 -37 3 -43 20 -43 11 0 23 7 27 16 11 31 -22 225 -52 297 -10 23 20 23 60 -1 17 -10 44 -21 60 -25 17 -3 37 -8 45 -11 8 -3 21 -2 29 3 18 11 -3 51 -27 51 -30 0 -102 32 -95 43 3 5 1 7 -4 4 -14 -9 -74 17 -95 40 -23 27 -89 184 -81 196 3 6 1 7 -5 3 -12 -7 -67 86 -67 114 0 8 -5 15 -10 15 -11 0 -95 81 -95 92 0 4 -10 17 -22 30 -12 13 -17 23 -11 23 6 0 14 -7 17 -16 6 -17 26 -10 25 9 0 9 -2 8 -6 -1 -3 -8 -11 -5 -24 10 -10 13 -18 19 -19 15 0 -10 -50 40 -50 50 0 5 -12 10 -27 11 -16 1 -35 11 -43 22 -14 18 -90 51 -114 49 -6 0 -25 -5 -43 -10z m75 -50 c18 -6 30 -15 27 -19 -3 -4 3 -7 13 -6 10 0 16 -5 14 -14 -2 -8 0 -12 4 -7 4 4 18 0 31 -8 13 -9 33 -13 43 -10 17 5 20 2 20 -22 0 -20 10 -39 31 -59 57 -53 149 -184 190 -270 23 -47 39 -88 36 -91 -9 -8 -66 30 -60 40 3 6 1 7 -6 3 -16 -10 -243 142 -235 156 4 7 2 8 -4 4 -10 -6 -135 99 -138 116 -1 5 -3 11 -4 16 -1 4 -2 11 -1 15 1 5 -2 6 -7 3 -5 -3 -19 13 -31 34 -29 52 -25 100 9 117 31 16 30 16 68 2z"/>
 <path d="M960 1246 c0 -2 8 -10 18 -17 15 -13 16 -12 3 4 -13 16 -21 21 -21 13z"/>
 <path d="M1067 1039 c7 -7 15 -10 18 -7 3 3 -2 9 -12 12 -14 6 -15 5 -6 -5z"/>
 <path d="M526 1545 c-3 -9 0 -15 9 -15 8 0 15 7 15 15 0 8 -4 15 -9 15 -5 0 -11 -7 -15 -15z"/>
 <path d="M370 1459 c0 -5 5 -7 10 -4 6 3 10 8 10 11 0 2 -4 4 -10 4 -5 0 -10 -5 -10 -11z"/>
 <path d="M635 1270 c10 -11 20 -20 23 -20 3 0 -3 9 -13 20 -10 11 -20 20 -23 20 -3 0 3 -9 13 -20z"/>
 <path d="M1071 1225 c12 -19 23 -35 25 -35 2 0 -4 16 -13 35 -9 19 -20 35 -25 35 -4 0 2 -16 13 -35z"/>
 <path d="M1150 1080 c1 -18 39 -90 40 -75 0 6 -9 28 -20 50 -11 22 -20 33 -20 25z"/>
 <path d="M1320 1020 c0 -5 5 -10 10 -10 6 0 10 5 10 10 0 6 -4 10 -10 10 -5 0 -10 -4 -10 -10z"/>
 <path d="M1210 990 c0 -5 5 -10 10 -10 6 0 10 5 10 10 0 6 -4 10 -10 10 -5 0 -10 -4 -10 -10z"/>
 <path d="M1369 903 c-8 -9 -9 -14 -3 -10 6 3 20 0 30 -8 25 -19 34 -19 34 1 0 9 -5 12 -12 8 -6 -4 -17 0 -23 10 -12 15 -13 15 -26 -1z"/>
 <path d="M1250 815 c0 -5 5 -17 10 -25 5 -8 10 -10 10 -5 0 6 -5 17 -10 25 -5 8 -10 11 -10 5z"/>
 <path d="M1755 801 c-3 -5 -1 -12 5 -16 5 -3 10 1 10 9 0 18 -6 21 -15 7z"/>
 <path d="M240 651 c0 -6 4 -13 10 -16 6 -3 7 1 4 9 -7 18 -14 21 -14 7z"/>
 <path d="M260 611 c0 -6 4 -13 10 -16 6 -3 7 1 4 9 -7 18 -14 21 -14 7z"/>
 <path d="M1202 600 c0 -14 2 -19 5 -12 2 6 2 18 0 25 -3 6 -5 1 -5 -13z"/>
 <path d="M1223 493 c-7 -2 -13 -17 -13 -33 0 -20 6 -29 22 -33 28 -8 48 9 48 38 0 29 -26 41 -57 28z"/>
 <path d="M1620 1625 c19 -19 36 -35 39 -35 3 0 -10 16 -29 35 -19 19 -36 35 -39 35 -3 0 10 -16 29 -35z"/>
 <path d="M181 1404 c0 -11 3 -14 6 -6 3 7 2 16 -1 19 -3 4 -6 -2 -5 -13z"/>
 <path d="M90 980 c0 -68 2 -121 4 -119 8 7 9 229 2 236 -3 4 -6 -49 -6 -117z"/>
 <path d="M1881 944 c0 -11 3 -14 6 -6 3 7 2 16 -1 19 -3 4 -6 -2 -5 -13z"/>
 <path d="M111 774 c0 -11 3 -14 6 -6 3 7 2 16 -1 19 -3 4 -6 -2 -5 -13z"/>
 </g>

</svg>